<svg width="512" height="512" viewBox="0 0 512 512" xmlns="http://www.w3.org/2000/svg">
  <!-- Background gradient -->
  <defs>
    <linearGradient id="bgGradient512" x1="0%" y1="0%" x2="100%" y2="100%">
      <stop offset="0%" style="stop-color:#06B6D4;stop-opacity:1" />
      <stop offset="100%" style="stop-color:#3B82F6;stop-opacity:1" />
    </linearGradient>
  </defs>
  
  <!-- Background -->
  <rect width="512" height="512" rx="64" fill="url(#bgGradient512)"/>
  
  <!-- Film strip icon -->
  <g transform="translate(128, 128)">
    <!-- Film strip frame -->
    <rect x="20" y="0" width="216" height="256" rx="12" fill="white" opacity="0.95"/>
    
    <!-- Film perforations -->
    <rect x="0" y="20" width="16" height="32" rx="6" fill="white"/>
    <rect x="0" y="72" width="16" height="32" rx="6" fill="white"/>
    <rect x="0" y="124" width="16" height="32" rx="6" fill="white"/>
    <rect x="0" y="176" width="16" height="32" rx="6" fill="white"/>
    <rect x="0" y="228" width="16" height="32" rx="6" fill="white"/>
    
    <rect x="240" y="20" width="16" height="32" rx="6" fill="white"/>
    <rect x="240" y="72" width="16" height="32" rx="6" fill="white"/>
    <rect x="240" y="124" width="16" height="32" rx="6" fill="white"/>
    <rect x="240" y="176" width="16" height="32" rx="6" fill="white"/>
    <rect x="240" y="228" width="16" height="32" rx="6" fill="white"/>
    
    <!-- Script lines -->
    <line x1="50" y1="50" x2="206" y2="50" stroke="#06B6D4" stroke-width="8" stroke-linecap="round"/>
    <line x1="50" y1="85" x2="160" y2="85" stroke="#06B6D4" stroke-width="8" stroke-linecap="round"/>
    <line x1="50" y1="120" x2="190" y2="120" stroke="#06B6D4" stroke-width="8" stroke-linecap="round"/>
    <line x1="50" y1="155" x2="175" y2="155" stroke="#06B6D4" stroke-width="8" stroke-linecap="round"/>
    
    <!-- AI sparkle -->
    <circle cx="180" cy="180" r="24" fill="#FCD34D"/>
    <path d="M180 156 L180 204 M156 180 L204 180" stroke="white" stroke-width="6" stroke-linecap="round"/>
    <circle cx="210" cy="210" r="12" fill="#FCD34D" opacity="0.7"/>
    <circle cx="150" cy="210" r="12" fill="#FCD34D" opacity="0.7"/>
    <circle cx="190" cy="150" r="10" fill="#FCD34D" opacity="0.5"/>
  </g>
</svg>
